# xmcd CD database file
#
# Track frame offsets:
#	150
#	15911
#	54715
#	88981
#	124741
#	146223
#	189290
#	217260
#	249565
#
# Disc length: 3988 seconds
#
# Revision: 0
# Processed by: cddbd v1.5PL3 Copyright (c) Steve Scherf et al.
# Submitted via: CDex 1.51
#
DISCID=840f9209
DTITLE=Terra Mystica - Soundtrack zur Fantasy-Show
DYEAR=1900
DGENRE=New Age
TTITLE0=Magic Love
TTITLE1=Erupting Earth
TTITLE2=Luna (Clubversion)
TTITLE3=Prayer for Protection
TTITLE4=Love Ritus
TTITLE5=Samhain
TTITLE6=Finale
TTITLE7=Kether
TTITLE8=Song of Creation
EXTD=
EXTT0=
EXTT1=
EXTT2=
EXTT3=
EXTT4=
EXTT5=
EXTT6=
EXTT7=
EXTT8=
PLAYORDER=
